<svg width="37" height="36" viewBox="0 0 37 36" fill="none" xmlns="http://www.w3.org/2000/svg">
<g clip-path="url(#clip0_801_4)">
<rect x="12" y="2" width="3" height="33" rx="1" fill="#E81212"/>
<path d="M8.60019 35.6001C8.37928 35.6001 8.2002 35.421 8.2002 35.2001C8.2002 34.3164 8.91654 33.6001 9.8002 33.6001H16.6002C17.4839 33.6001 18.2002 34.3164 18.2002 35.2001C18.2002 35.421 18.0211 35.6001 17.8002 35.6001H8.60019Z" fill="#E81212"/>
<path d="M10.6997 34C10.4236 34 10.1997 33.7761 10.1997 33.5V32.5C10.1997 32.2239 10.4236 32 10.6997 32H15.6997C15.9758 32 16.1997 32.2239 16.1997 32.5V33.5C16.1997 33.7761 15.9758 34 15.6997 34H10.6997Z" fill="#E81212"/>
<path d="M31.1754 10.6027C31.9203 10.969 31.9203 12.031 31.1754 12.3973L14.1913 20.7504C13.5268 21.0772 12.75 20.5936 12.75 19.8531L12.75 3.14692C12.75 2.40641 13.5268 1.92277 14.1913 2.24958L31.1754 10.6027Z" fill="#E81212"/>
</g>
<defs>
<clipPath id="clip0_801_4">
<rect width="36" height="36" fill="white" transform="translate(0.299805)"/>
</clipPath>
</defs>
</svg>
