<svg width="37" height="36" viewBox="0 0 37 36" fill="none" xmlns="http://www.w3.org/2000/svg">
<rect x="11.2002" y="2.1001" width="2" height="33" rx="1" fill="#E81212"/>
<path d="M7.60019 35.6001C7.37928 35.6001 7.2002 35.421 7.2002 35.2001V35.2001C7.2002 34.3164 7.91654 33.6001 8.8002 33.6001H15.6002C16.4839 33.6001 17.2002 34.3164 17.2002 35.2001V35.2001C17.2002 35.421 17.0211 35.6001 16.8002 35.6001H7.60019Z" fill="#E81212"/>
<path d="M9.69971 34C9.42356 34 9.19971 33.7761 9.19971 33.5V32.5C9.19971 32.2239 9.42356 32 9.69971 32H14.6997C14.9758 32 15.1997 32.2239 15.1997 32.5V33.5C15.1997 33.7761 14.9758 34 14.6997 34H9.69971Z" fill="#E81212"/>
<path d="M30.1754 10.6027C30.9203 10.969 30.9203 12.031 30.1754 12.3973L13.1913 20.7504C12.5268 21.0772 11.75 20.5936 11.75 19.8531L11.75 3.14692C11.75 2.40641 12.5268 1.92277 13.1913 2.24958L30.1754 10.6027Z" fill="#E81212"/>
</svg>
