<svg width="40" height="40" viewBox="0 0 40 40" fill="none" xmlns="http://www.w3.org/2000/svg">
<g filter="url(#filter0_i_801_14)">
<circle cx="20.0752" cy="22.0752" r="12.375" fill="white"/>
</g>
<g filter="url(#filter1_i_801_14)">
<rect x="19" y="5" width="2" height="4" fill="#FFD700"/>
</g>
<circle cx="20.0498" cy="22.0498" r="0.75" fill="black"/>
<g filter="url(#filter2_d_801_14)">
<path d="M19 17C19 18.5 20 21.5 20 21.5C20 21.5 21 19 21 17C21 15 20 11.5 20 11.5C20 11.5 19 15.5 19 17Z" fill="black"/>
<path d="M19 17C19 18.5 20 21.5 20 21.5C20 21.5 21 19 21 17C21 15 20 11.5 20 11.5C20 11.5 19 15.5 19 17Z" stroke="black" stroke-width="0.8"/>
</g>
<g filter="url(#filter3_d_801_14)">
<path d="M23.0958 19.7072C22.1572 20.1779 20.5443 21.7393 20.5443 21.7393C20.5443 21.7393 22.8442 21.3346 24.0957 20.707C25.3472 20.0794 26.8015 18.6013 26.8015 18.6013C26.8015 18.6013 24.0344 19.2365 23.0958 19.7072Z" fill="black"/>
<path d="M23.0958 19.7072C22.1572 20.1779 20.5443 21.7393 20.5443 21.7393C20.5443 21.7393 22.8442 21.3346 24.0957 20.707C25.3472 20.0794 26.8015 18.6013 26.8015 18.6013C26.8015 18.6013 24.0344 19.2365 23.0958 19.7072Z" stroke="black" stroke-width="0.8"/>
</g>
<g filter="url(#filter4_i_801_14)">
<path d="M35 22C35 30.2843 28.2843 37 20 37C11.7157 37 5 30.2843 5 22C5 13.7157 11.7157 7 20 7C28.2843 7 35 13.7157 35 22ZM7.6248 22C7.6248 28.8346 13.1654 34.3752 20 34.3752C26.8346 34.3752 32.3752 28.8346 32.3752 22C32.3752 15.1654 26.8346 9.6248 20 9.6248C13.1654 9.6248 7.6248 15.1654 7.6248 22Z" fill="#FFD700"/>
</g>
<g clip-path="url(#clip0_801_14)">
<rect x="28.5" y="21.5" width="3.5" height="1" rx="0.5" fill="black"/>
<rect x="8" y="21.5" width="3.5" height="1" rx="0.5" fill="black"/>
</g>
<g clip-path="url(#clip1_801_14)">
<rect x="27.1113" y="17.3169" width="3.5" height="1" rx="0.5" transform="rotate(-30 27.1113 17.3169)" fill="black"/>
<rect x="9.35791" y="27.5669" width="3.5" height="1" rx="0.5" transform="rotate(-30 9.35791 27.5669)" fill="black"/>
</g>
<g clip-path="url(#clip2_801_14)">
<rect x="23.8174" y="14.3887" width="3.5" height="1" rx="0.5" transform="rotate(-60 23.8174 14.3887)" fill="black"/>
<rect x="13.5674" y="32.1421" width="3.5" height="1" rx="0.5" transform="rotate(-60 13.5674 32.1421)" fill="black"/>
</g>
<g clip-path="url(#clip3_801_14)">
<rect x="19.5005" y="13.5" width="3.5" height="1" rx="0.5" transform="rotate(-90 19.5005 13.5)" fill="black"/>
<rect x="19.5005" y="34" width="3.5" height="1" rx="0.5" transform="rotate(-90 19.5005 34)" fill="black"/>
</g>
<g clip-path="url(#clip4_801_14)">
<rect x="15.3174" y="14.8887" width="3.5" height="1" rx="0.5" transform="rotate(-120 15.3174 14.8887)" fill="black"/>
<rect x="25.5674" y="32.6421" width="3.5" height="1" rx="0.5" transform="rotate(-120 25.5674 32.6421)" fill="black"/>
</g>
<g clip-path="url(#clip5_801_14)">
<rect x="12.3892" y="18.1826" width="3.5" height="1" rx="0.5" transform="rotate(-150 12.3892 18.1826)" fill="black"/>
<rect x="30.1426" y="28.4326" width="3.5" height="1" rx="0.5" transform="rotate(-150 30.1426 28.4326)" fill="black"/>
</g>
<g clip-path="url(#clip6_801_14)">
<g filter="url(#filter5_di_801_14)">
<path d="M17 4.6C17 3.71634 17.7163 3 18.6 3L21.4 3C22.2837 3 23 3.71634 23 4.6C23 4.82091 22.8209 5 22.6 5H17.4C17.1791 5 17 4.82091 17 4.6Z" fill="#FFD700"/>
</g>
<rect x="17" y="5" width="2" height="0.615385" transform="rotate(-90 17 5)" fill="#8F7C10"/>
<rect x="18.0771" y="5" width="2" height="0.615385" transform="rotate(-90 18.0771 5)" fill="#8F7C10"/>
<rect x="19.1538" y="5" width="2" height="0.615385" transform="rotate(-90 19.1538 5)" fill="#8F7C10"/>
<rect x="20.231" y="5" width="2" height="0.615385" transform="rotate(-90 20.231 5)" fill="#8F7C10"/>
<rect x="21.3076" y="5" width="2" height="0.615385" transform="rotate(-90 21.3076 5)" fill="#8F7C10"/>
<rect x="22.3848" y="5" width="2" height="0.615385" transform="rotate(-90 22.3848 5)" fill="#8F7C10"/>
</g>
<defs>
<filter id="filter0_i_801_14" x="7.7002" y="9.7002" width="24.75" height="24.75" filterUnits="userSpaceOnUse" color-interpolation-filters="sRGB">
<feFlood flood-opacity="0" result="BackgroundImageFix"/>
<feBlend mode="normal" in="SourceGraphic" in2="BackgroundImageFix" result="shape"/>
<feColorMatrix in="SourceAlpha" type="matrix" values="0 0 0 0 0 0 0 0 0 0 0 0 0 0 0 0 0 0 127 0" result="hardAlpha"/>
<feMorphology radius="1" operator="erode" in="SourceAlpha" result="effect1_innerShadow_801_14"/>
<feOffset/>
<feGaussianBlur stdDeviation="2"/>
<feComposite in2="hardAlpha" operator="arithmetic" k2="-1" k3="1"/>
<feColorMatrix type="matrix" values="0 0 0 0 0 0 0 0 0 0 0 0 0 0 0 0 0 0 0.25 0"/>
<feBlend mode="normal" in2="shape" result="effect1_innerShadow_801_14"/>
</filter>
<filter id="filter1_i_801_14" x="19" y="5" width="2" height="4" filterUnits="userSpaceOnUse" color-interpolation-filters="sRGB">
<feFlood flood-opacity="0" result="BackgroundImageFix"/>
<feBlend mode="normal" in="SourceGraphic" in2="BackgroundImageFix" result="shape"/>
<feColorMatrix in="SourceAlpha" type="matrix" values="0 0 0 0 0 0 0 0 0 0 0 0 0 0 0 0 0 0 127 0" result="hardAlpha"/>
<feOffset/>
<feGaussianBlur stdDeviation="0.5"/>
<feComposite in2="hardAlpha" operator="arithmetic" k2="-1" k3="1"/>
<feColorMatrix type="matrix" values="0 0 0 0 0 0 0 0 0 0 0 0 0 0 0 0 0 0 0.25 0"/>
<feBlend mode="normal" in2="shape" result="effect1_innerShadow_801_14"/>
</filter>
<filter id="filter2_d_801_14" x="14.6001" y="7.95361" width="10.7998" height="20.709" filterUnits="userSpaceOnUse" color-interpolation-filters="sRGB">
<feFlood flood-opacity="0" result="BackgroundImageFix"/>
<feColorMatrix in="SourceAlpha" type="matrix" values="0 0 0 0 0 0 0 0 0 0 0 0 0 0 0 0 0 0 127 0" result="hardAlpha"/>
<feOffset dy="2"/>
<feGaussianBlur stdDeviation="2"/>
<feComposite in2="hardAlpha" operator="out"/>
<feColorMatrix type="matrix" values="0 0 0 0 0 0 0 0 0 0 0 0 0 0 0 0 0 0 0.25 0"/>
<feBlend mode="normal" in2="BackgroundImageFix" result="effect1_dropShadow_801_14"/>
<feBlend mode="normal" in="SourceGraphic" in2="effect1_dropShadow_801_14" result="shape"/>
</filter>
<filter id="filter3_d_801_14" x="15.3286" y="15.9048" width="16.7192" height="12.4546" filterUnits="userSpaceOnUse" color-interpolation-filters="sRGB">
<feFlood flood-opacity="0" result="BackgroundImageFix"/>
<feColorMatrix in="SourceAlpha" type="matrix" values="0 0 0 0 0 0 0 0 0 0 0 0 0 0 0 0 0 0 127 0" result="hardAlpha"/>
<feOffset dy="2"/>
<feGaussianBlur stdDeviation="2"/>
<feComposite in2="hardAlpha" operator="out"/>
<feColorMatrix type="matrix" values="0 0 0 0 0 0 0 0 0 0 0 0 0 0 0 0 0 0 0.25 0"/>
<feBlend mode="normal" in2="BackgroundImageFix" result="effect1_dropShadow_801_14"/>
<feBlend mode="normal" in="SourceGraphic" in2="effect1_dropShadow_801_14" result="shape"/>
</filter>
<filter id="filter4_i_801_14" x="5" y="7" width="30" height="30" filterUnits="userSpaceOnUse" color-interpolation-filters="sRGB">
<feFlood flood-opacity="0" result="BackgroundImageFix"/>
<feBlend mode="normal" in="SourceGraphic" in2="BackgroundImageFix" result="shape"/>
<feColorMatrix in="SourceAlpha" type="matrix" values="0 0 0 0 0 0 0 0 0 0 0 0 0 0 0 0 0 0 127 0" result="hardAlpha"/>
<feOffset/>
<feGaussianBlur stdDeviation="1"/>
<feComposite in2="hardAlpha" operator="arithmetic" k2="-1" k3="1"/>
<feColorMatrix type="matrix" values="0 0 0 0 0 0 0 0 0 0 0 0 0 0 0 0 0 0 0.25 0"/>
<feBlend mode="normal" in2="shape" result="effect1_innerShadow_801_14"/>
</filter>
<filter id="filter5_di_801_14" x="13" y="3" width="14" height="10" filterUnits="userSpaceOnUse" color-interpolation-filters="sRGB">
<feFlood flood-opacity="0" result="BackgroundImageFix"/>
<feColorMatrix in="SourceAlpha" type="matrix" values="0 0 0 0 0 0 0 0 0 0 0 0 0 0 0 0 0 0 127 0" result="hardAlpha"/>
<feOffset dy="4"/>
<feGaussianBlur stdDeviation="2"/>
<feComposite in2="hardAlpha" operator="out"/>
<feColorMatrix type="matrix" values="0 0 0 0 0 0 0 0 0 0 0 0 0 0 0 0 0 0 0.25 0"/>
<feBlend mode="normal" in2="BackgroundImageFix" result="effect1_dropShadow_801_14"/>
<feBlend mode="normal" in="SourceGraphic" in2="effect1_dropShadow_801_14" result="shape"/>
<feColorMatrix in="SourceAlpha" type="matrix" values="0 0 0 0 0 0 0 0 0 0 0 0 0 0 0 0 0 0 127 0" result="hardAlpha"/>
<feOffset/>
<feGaussianBlur stdDeviation="0.5"/>
<feComposite in2="hardAlpha" operator="arithmetic" k2="-1" k3="1"/>
<feColorMatrix type="matrix" values="0 0 0 0 0 0 0 0 0 0 0 0 0 0 0 0 0 0 0.25 0"/>
<feBlend mode="normal" in2="shape" result="effect2_innerShadow_801_14"/>
</filter>
<clipPath id="clip0_801_14">
<rect width="24" height="1" fill="white" transform="translate(8 21.5)"/>
</clipPath>
<clipPath id="clip1_801_14">
<rect width="24" height="1" fill="white" transform="translate(9.35791 27.5669) rotate(-30)"/>
</clipPath>
<clipPath id="clip2_801_14">
<rect width="24" height="1" fill="white" transform="translate(13.5674 32.1421) rotate(-60)"/>
</clipPath>
<clipPath id="clip3_801_14">
<rect width="24" height="1" fill="white" transform="matrix(0 -1 1 0 19.5005 34)"/>
</clipPath>
<clipPath id="clip4_801_14">
<rect width="24" height="1" fill="white" transform="translate(25.5674 32.6421) rotate(-120)"/>
</clipPath>
<clipPath id="clip5_801_14">
<rect width="24" height="1" fill="white" transform="translate(30.1426 28.4326) rotate(-150)"/>
</clipPath>
<clipPath id="clip6_801_14">
<path d="M17 4.6C17 3.71634 17.7163 3 18.6 3H21.4C22.2837 3 23 3.71634 23 4.6V4.6C23 4.82091 22.8209 5 22.6 5H17.4C17.1791 5 17 4.82091 17 4.6V4.6Z" fill="white"/>
</clipPath>
</defs>
</svg>
